<?xml version="1.0" encoding="us-ascii" standalone="no"?><svg xmlns="http://www.w3.org/2000/svg" xmlns:xlink="http://www.w3.org/1999/xlink" contentStyleType="text/css" height="936px" preserveAspectRatio="none" style="width:336px;height:936px;background:#FFFFFF;" version="1.1" viewBox="0 0 336 936" width="336px" zoomAndPan="magnify"><defs/><g><ellipse cx="204" cy="20" fill="#222222" rx="10" ry="10" style="stroke:#222222;stroke-width:1.0;"/><rect fill="#F1F1F1" height="35.0938" rx="12.5" ry="12.5" style="stroke:#181818;stroke-width:0.5;" width="98" x="155" y="50"/><text fill="#000000" font-family="sans-serif" font-size="12" lengthAdjust="spacing" textLength="78" x="165" y="72.457">Login as User</text><polygon fill="#F1F1F1" points="176.5,105.0938,231.5,105.0938,243.5,117.0938,231.5,129.0938,176.5,129.0938,164.5,117.0938,176.5,105.0938" style="stroke:#181818;stroke-width:0.5;"/><text fill="#000000" font-family="sans-serif" font-size="11" lengthAdjust="spacing" textLength="55" x="176.5" y="121.5947">New User?</text><text fill="#000000" font-family="sans-serif" font-size="11" lengthAdjust="spacing" textLength="18" x="146.5" y="114.6768">yes</text><text fill="#000000" font-family="sans-serif" font-size="11" lengthAdjust="spacing" textLength="12" x="243.5" y="114.6768">no</text><rect fill="#F1F1F1" height="35.0938" rx="12.5" ry="12.5" style="stroke:#181818;stroke-width:0.5;" width="113" x="82.5" y="139.0938"/><text fill="#000000" font-family="sans-serif" font-size="12" lengthAdjust="spacing" textLength="93" x="92.5" y="161.5508">Register Account</text><rect fill="#F1F1F1" height="35.0938" rx="12.5" ry="12.5" style="stroke:#181818;stroke-width:0.5;" width="93" x="92.5" y="194.1875"/><text fill="#000000" font-family="sans-serif" font-size="12" lengthAdjust="spacing" textLength="73" x="102.5" y="216.6445">Set up Profile</text><rect fill="#F1F1F1" height="35.0938" rx="12.5" ry="12.5" style="stroke:#181818;stroke-width:0.5;" width="107" x="215.5" y="139.0938"/><text fill="#000000" font-family="sans-serif" font-size="12" lengthAdjust="spacing" textLength="87" x="225.5" y="161.5508">Continue to App</text><polygon fill="#F1F1F1" points="204,235.2813,216,247.2813,204,259.2813,192,247.2813,204,235.2813" style="stroke:#181818;stroke-width:0.5;"/><rect fill="#F1F1F1" height="35.0938" rx="12.5" ry="12.5" style="stroke:#181818;stroke-width:0.5;" width="162" x="123" y="279.2813"/><text fill="#000000" font-family="sans-serif" font-size="12" lengthAdjust="spacing" textLength="142" x="133" y="301.7383">View Live Matches &amp; Stats</text><rect fill="#F1F1F1" height="35.0938" rx="12.5" ry="12.5" style="stroke:#181818;stroke-width:0.5;" width="204" x="102" y="334.375"/><text fill="#000000" font-family="sans-serif" font-size="12" lengthAdjust="spacing" textLength="184" x="112" y="356.832">Browse Past Matches &amp; Full Stats</text><rect fill="#F1F1F1" height="35.0938" rx="12.5" ry="12.5" style="stroke:#181818;stroke-width:0.5;" width="122" x="143" y="389.4688"/><text fill="#000000" font-family="sans-serif" font-size="12" lengthAdjust="spacing" textLength="102" x="153" y="411.9258">Read Latest News</text><polygon fill="#F1F1F1" points="141.5,444.5625,266.5,444.5625,278.5,456.5625,266.5,468.5625,141.5,468.5625,129.5,456.5625,141.5,444.5625" style="stroke:#181818;stroke-width:0.5;"/><text fill="#000000" font-family="sans-serif" font-size="11" lengthAdjust="spacing" textLength="125" x="141.5" y="461.0635">Wants to Save Favorites?</text><text fill="#000000" font-family="sans-serif" font-size="11" lengthAdjust="spacing" textLength="18" x="111.5" y="454.1455">yes</text><text fill="#000000" font-family="sans-serif" font-size="11" lengthAdjust="spacing" textLength="12" x="278.5" y="454.1455">no</text><rect fill="#F1F1F1" height="35.0938" rx="12.5" ry="12.5" style="stroke:#181818;stroke-width:0.5;" width="144" x="47.5" y="478.5625"/><text fill="#000000" font-family="sans-serif" font-size="12" lengthAdjust="spacing" textLength="124" x="57.5" y="501.0195">Add Favourite Team(s)</text><rect fill="#F1F1F1" height="35.0938" rx="12.5" ry="12.5" style="stroke:#181818;stroke-width:0.5;" width="44" x="266.5" y="478.5625"/><text fill="#000000" font-family="sans-serif" font-size="12" lengthAdjust="spacing" textLength="24" x="276.5" y="501.0195">Skip</text><polygon fill="#F1F1F1" points="204,519.6563,216,531.6563,204,543.6563,192,531.6563,204,519.6563" style="stroke:#181818;stroke-width:0.5;"/><polygon fill="#F1F1F1" points="126.5,563.6563,281.5,563.6563,293.5,575.6563,281.5,587.6563,126.5,587.6563,114.5,575.6563,126.5,563.6563" style="stroke:#181818;stroke-width:0.5;"/><text fill="#000000" font-family="sans-serif" font-size="11" lengthAdjust="spacing" textLength="155" x="126.5" y="580.1572">Wants to Create Custom Match?</text><text fill="#000000" font-family="sans-serif" font-size="11" lengthAdjust="spacing" textLength="18" x="96.5" y="573.2393">yes</text><text fill="#000000" font-family="sans-serif" font-size="11" lengthAdjust="spacing" textLength="12" x="293.5" y="573.2393">no</text><rect fill="#F1F1F1" height="35.0938" rx="12.5" ry="12.5" style="stroke:#181818;stroke-width:0.5;" width="92" x="58.5" y="597.6563"/><text fill="#000000" font-family="sans-serif" font-size="12" lengthAdjust="spacing" textLength="72" x="68.5" y="620.1133">Create Match</text><rect fill="#F1F1F1" height="35.0938" rx="12.5" ry="12.5" style="stroke:#181818;stroke-width:0.5;" width="132" x="38.5" y="652.75"/><text fill="#000000" font-family="sans-serif" font-size="12" lengthAdjust="spacing" textLength="112" x="48.5" y="675.207">Add Teams &amp; Venue</text><rect fill="#F1F1F1" height="35.0938" rx="12.5" ry="12.5" style="stroke:#181818;stroke-width:0.5;" width="187" x="11" y="707.8438"/><text fill="#000000" font-family="sans-serif" font-size="12" lengthAdjust="spacing" textLength="167" x="21" y="730.3008">Add Events (Goals, Cards, etc)</text><rect fill="#F1F1F1" height="35.0938" rx="12.5" ry="12.5" style="stroke:#181818;stroke-width:0.5;" width="44" x="281.5" y="597.6563"/><text fill="#000000" font-family="sans-serif" font-size="12" lengthAdjust="spacing" textLength="24" x="291.5" y="620.1133">Skip</text><polygon fill="#F1F1F1" points="204,748.9375,216,760.9375,204,772.9375,192,760.9375,204,748.9375" style="stroke:#181818;stroke-width:0.5;"/><rect fill="#F1F1F1" height="35.0938" rx="12.5" ry="12.5" style="stroke:#181818;stroke-width:0.5;" width="155" x="126.5" y="792.9375"/><text fill="#000000" font-family="sans-serif" font-size="12" lengthAdjust="spacing" textLength="135" x="136.5" y="815.3945">Update Profile (Optional)</text><rect fill="#F1F1F1" height="35.0938" rx="12.5" ry="12.5" style="stroke:#181818;stroke-width:0.5;" width="58" x="175" y="848.0313"/><text fill="#000000" font-family="sans-serif" font-size="12" lengthAdjust="spacing" textLength="38" x="185" y="870.4883">Logout</text><ellipse cx="204" cy="914.125" fill="none" rx="11" ry="11" style="stroke:#222222;stroke-width:1.0;"/><ellipse cx="204" cy="914.125" fill="#222222" rx="6" ry="6" style="stroke:#222222;stroke-width:1.0;"/><line style="stroke:#181818;stroke-width:1.0;" x1="204" x2="204" y1="30" y2="50"/><polygon fill="#181818" points="200,40,204,50,208,40,204,44" style="stroke:#181818;stroke-width:1.0;"/><line style="stroke:#181818;stroke-width:1.0;" x1="139" x2="139" y1="174.1875" y2="194.1875"/><polygon fill="#181818" points="135,184.1875,139,194.1875,143,184.1875,139,188.1875" style="stroke:#181818;stroke-width:1.0;"/><line style="stroke:#181818;stroke-width:1.0;" x1="164.5" x2="139" y1="117.0938" y2="117.0938"/><line style="stroke:#181818;stroke-width:1.0;" x1="139" x2="139" y1="117.0938" y2="139.0938"/><polygon fill="#181818" points="135,129.0938,139,139.0938,143,129.0938,139,133.0938" style="stroke:#181818;stroke-width:1.0;"/><line style="stroke:#181818;stroke-width:1.0;" x1="243.5" x2="269" y1="117.0938" y2="117.0938"/><line style="stroke:#181818;stroke-width:1.0;" x1="269" x2="269" y1="117.0938" y2="139.0938"/><polygon fill="#181818" points="265,129.0938,269,139.0938,273,129.0938,269,133.0938" style="stroke:#181818;stroke-width:1.0;"/><line style="stroke:#181818;stroke-width:1.0;" x1="139" x2="139" y1="229.2813" y2="247.2813"/><line style="stroke:#181818;stroke-width:1.0;" x1="139" x2="192" y1="247.2813" y2="247.2813"/><polygon fill="#181818" points="182,243.2813,192,247.2813,182,251.2813,186,247.2813" style="stroke:#181818;stroke-width:1.0;"/><line style="stroke:#181818;stroke-width:1.0;" x1="269" x2="269" y1="174.1875" y2="247.2813"/><line style="stroke:#181818;stroke-width:1.0;" x1="269" x2="216" y1="247.2813" y2="247.2813"/><polygon fill="#181818" points="226,243.2813,216,247.2813,226,251.2813,222,247.2813" style="stroke:#181818;stroke-width:1.0;"/><line style="stroke:#181818;stroke-width:1.0;" x1="204" x2="204" y1="85.0938" y2="105.0938"/><polygon fill="#181818" points="200,95.0938,204,105.0938,208,95.0938,204,99.0938" style="stroke:#181818;stroke-width:1.0;"/><line style="stroke:#181818;stroke-width:1.0;" x1="204" x2="204" y1="259.2813" y2="279.2813"/><polygon fill="#181818" points="200,269.2813,204,279.2813,208,269.2813,204,273.2813" style="stroke:#181818;stroke-width:1.0;"/><line style="stroke:#181818;stroke-width:1.0;" x1="204" x2="204" y1="314.375" y2="334.375"/><polygon fill="#181818" points="200,324.375,204,334.375,208,324.375,204,328.375" style="stroke:#181818;stroke-width:1.0;"/><line style="stroke:#181818;stroke-width:1.0;" x1="204" x2="204" y1="369.4688" y2="389.4688"/><polygon fill="#181818" points="200,379.4688,204,389.4688,208,379.4688,204,383.4688" style="stroke:#181818;stroke-width:1.0;"/><line style="stroke:#181818;stroke-width:1.0;" x1="129.5" x2="119.5" y1="456.5625" y2="456.5625"/><line style="stroke:#181818;stroke-width:1.0;" x1="119.5" x2="119.5" y1="456.5625" y2="478.5625"/><polygon fill="#181818" points="115.5,468.5625,119.5,478.5625,123.5,468.5625,119.5,472.5625" style="stroke:#181818;stroke-width:1.0;"/><line style="stroke:#181818;stroke-width:1.0;" x1="278.5" x2="288.5" y1="456.5625" y2="456.5625"/><line style="stroke:#181818;stroke-width:1.0;" x1="288.5" x2="288.5" y1="456.5625" y2="478.5625"/><polygon fill="#181818" points="284.5,468.5625,288.5,478.5625,292.5,468.5625,288.5,472.5625" style="stroke:#181818;stroke-width:1.0;"/><line style="stroke:#181818;stroke-width:1.0;" x1="119.5" x2="119.5" y1="513.6563" y2="531.6563"/><line style="stroke:#181818;stroke-width:1.0;" x1="119.5" x2="192" y1="531.6563" y2="531.6563"/><polygon fill="#181818" points="182,527.6563,192,531.6563,182,535.6563,186,531.6563" style="stroke:#181818;stroke-width:1.0;"/><line style="stroke:#181818;stroke-width:1.0;" x1="288.5" x2="288.5" y1="513.6563" y2="531.6563"/><line style="stroke:#181818;stroke-width:1.0;" x1="288.5" x2="216" y1="531.6563" y2="531.6563"/><polygon fill="#181818" points="226,527.6563,216,531.6563,226,535.6563,222,531.6563" style="stroke:#181818;stroke-width:1.0;"/><line style="stroke:#181818;stroke-width:1.0;" x1="204" x2="204" y1="424.5625" y2="444.5625"/><polygon fill="#181818" points="200,434.5625,204,444.5625,208,434.5625,204,438.5625" style="stroke:#181818;stroke-width:1.0;"/><line style="stroke:#181818;stroke-width:1.0;" x1="104.5" x2="104.5" y1="632.75" y2="652.75"/><polygon fill="#181818" points="100.5,642.75,104.5,652.75,108.5,642.75,104.5,646.75" style="stroke:#181818;stroke-width:1.0;"/><line style="stroke:#181818;stroke-width:1.0;" x1="104.5" x2="104.5" y1="687.8438" y2="707.8438"/><polygon fill="#181818" points="100.5,697.8438,104.5,707.8438,108.5,697.8438,104.5,701.8438" style="stroke:#181818;stroke-width:1.0;"/><line style="stroke:#181818;stroke-width:1.0;" x1="114.5" x2="104.5" y1="575.6563" y2="575.6563"/><line style="stroke:#181818;stroke-width:1.0;" x1="104.5" x2="104.5" y1="575.6563" y2="597.6563"/><polygon fill="#181818" points="100.5,587.6563,104.5,597.6563,108.5,587.6563,104.5,591.6563" style="stroke:#181818;stroke-width:1.0;"/><line style="stroke:#181818;stroke-width:1.0;" x1="293.5" x2="303.5" y1="575.6563" y2="575.6563"/><line style="stroke:#181818;stroke-width:1.0;" x1="303.5" x2="303.5" y1="575.6563" y2="597.6563"/><polygon fill="#181818" points="299.5,587.6563,303.5,597.6563,307.5,587.6563,303.5,591.6563" style="stroke:#181818;stroke-width:1.0;"/><line style="stroke:#181818;stroke-width:1.0;" x1="104.5" x2="104.5" y1="742.9375" y2="760.9375"/><line style="stroke:#181818;stroke-width:1.0;" x1="104.5" x2="192" y1="760.9375" y2="760.9375"/><polygon fill="#181818" points="182,756.9375,192,760.9375,182,764.9375,186,760.9375" style="stroke:#181818;stroke-width:1.0;"/><line style="stroke:#181818;stroke-width:1.0;" x1="303.5" x2="303.5" y1="632.75" y2="760.9375"/><line style="stroke:#181818;stroke-width:1.0;" x1="303.5" x2="216" y1="760.9375" y2="760.9375"/><polygon fill="#181818" points="226,756.9375,216,760.9375,226,764.9375,222,760.9375" style="stroke:#181818;stroke-width:1.0;"/><line style="stroke:#181818;stroke-width:1.0;" x1="204" x2="204" y1="543.6563" y2="563.6563"/><polygon fill="#181818" points="200,553.6563,204,563.6563,208,553.6563,204,557.6563" style="stroke:#181818;stroke-width:1.0;"/><line style="stroke:#181818;stroke-width:1.0;" x1="204" x2="204" y1="772.9375" y2="792.9375"/><polygon fill="#181818" points="200,782.9375,204,792.9375,208,782.9375,204,786.9375" style="stroke:#181818;stroke-width:1.0;"/><line style="stroke:#181818;stroke-width:1.0;" x1="204" x2="204" y1="828.0313" y2="848.0313"/><polygon fill="#181818" points="200,838.0313,204,848.0313,208,838.0313,204,842.0313" style="stroke:#181818;stroke-width:1.0;"/><line style="stroke:#181818;stroke-width:1.0;" x1="204" x2="204" y1="883.125" y2="903.125"/><polygon fill="#181818" points="200,893.125,204,903.125,208,893.125,204,897.125" style="stroke:#181818;stroke-width:1.0;"/><!--SRC=[XP71JiCm38RlUGgVK2Vn1Eq1bOfnAJ2jR9ojrjiYigIAdKsyFSvMiI4caKiK-xU_tp4BHZ6cRCFMUa265LEiZB4RA5xfU7e-p41svA7u8fuPq5CkQMjPA4BTzo5vgSxXZWJI28iODjPHPSWnGU73LDK4BzOd0WbGZwFc_M0tIbzRHRNsGF22qk-8uGuwGU7Ab8yn7BNB0bckilFat8zaIJX0Yq8gKTCy-Vz0BvnP7MhdEHv2jAgvCKuz3ATyoW9u9zmNFFjZl_kq5y-_04qafKEJMCB-xF86PLATqjK5d75vf3Nfrrp5dmwKsnVF0HtVGuDnq8ka_yTPkHg7p9cs0CNRA3PuT5gNznoIhikeq_4R]--></g></svg>